<svg width="84" height="22" viewBox="0 0 84 22" fill="none" xmlns="http://www.w3.org/2000/svg">
<path d="M9.01063 1.9956C6.62482 1.99363 4.33593 2.94041 2.64751 4.62766C0.95909 6.31492 0.00943287 8.60444 0.00745539 10.9926C0.00547792 13.3807 0.951342 15.6718 2.63697 17.3618C4.32259 19.0519 6.6099 20.0024 8.99572 20.0044L9.00317 11L9.01063 1.9956Z" fill="#579BFF"/>
<path d="M10 1.98816C11.0506 1.98816 12.0909 2.1955 13.0615 2.59753C14.0321 2.99957 14.9144 3.58811 15.6572 4.33093C16.4 5.07375 16.9886 5.95611 17.3906 6.92664C17.7927 7.89724 18 8.93758 18 9.98816H10V1.98816ZM12.5 5.98816C11.6716 5.98816 11 6.65973 11 7.48816C11 8.31659 11.6716 8.98816 12.5 8.98816C13.3284 8.98816 14 8.31659 14 7.48816C14 6.65973 13.3284 5.98816 12.5 5.98816Z" fill="#7000FF"/>
<path d="M25.0426 16.692C24.2639 16.692 23.5706 16.516 22.9626 16.164C22.3546 15.8013 21.8746 15.3053 21.5226 14.676C21.1812 14.0467 21.0106 13.316 21.0106 12.484C21.0106 11.6413 21.1812 10.9053 21.5226 10.276C21.8746 9.636 22.3546 9.14 22.9626 8.788C23.5706 8.42533 24.2639 8.244 25.0426 8.244C26.0239 8.244 26.8452 8.5 27.5066 9.012C28.1679 9.524 28.5892 10.2173 28.7706 11.092H27.1066C26.9999 10.6227 26.7546 10.26 26.3706 10.004C25.9972 9.748 25.5492 9.62 25.0266 9.62C24.5999 9.62 24.2052 9.732 23.8426 9.956C23.4799 10.1693 23.1866 10.4893 22.9626 10.916C22.7492 11.332 22.6426 11.8493 22.6426 12.468C22.6426 12.9267 22.7066 13.3373 22.8346 13.7C22.9626 14.052 23.1332 14.3507 23.3466 14.596C23.5706 14.8413 23.8266 15.028 24.1146 15.156C24.4026 15.2733 24.7066 15.332 25.0266 15.332C25.3786 15.332 25.6932 15.2787 25.9706 15.172C26.2586 15.0547 26.4986 14.884 26.6906 14.66C26.8932 14.436 27.0319 14.1693 27.1066 13.86H28.7706C28.5892 14.7133 28.1679 15.4013 27.5066 15.924C26.8452 16.436 26.0239 16.692 25.0426 16.692ZM31.5707 20.02L33.5387 15.604H33.0747L29.8907 8.436H31.6187L34.1467 14.292L36.6907 8.436H38.3707L33.2507 20.02H31.5707ZM39.7833 20.02V8.436H41.2233L41.3833 9.684C41.554 9.43867 41.7673 9.20933 42.0233 8.996C42.2793 8.772 42.5833 8.59067 42.9353 8.452C43.298 8.31333 43.7193 8.244 44.1993 8.244C44.9673 8.244 45.6393 8.43067 46.2153 8.804C46.802 9.17733 47.2553 9.684 47.5753 10.324C47.906 10.9533 48.0713 11.6733 48.0713 12.484C48.0713 13.2947 47.906 14.02 47.5753 14.66C47.2446 15.2893 46.786 15.7853 46.1993 16.148C45.6233 16.5107 44.9513 16.692 44.1833 16.692C43.554 16.692 42.9993 16.5693 42.5193 16.324C42.0393 16.068 41.6606 15.716 41.3833 15.268V20.02H39.7833ZM43.9273 15.3C44.418 15.3 44.85 15.1827 45.2233 14.948C45.6073 14.7133 45.906 14.3827 46.1193 13.956C46.3433 13.5293 46.4553 13.0333 46.4553 12.468C46.4553 11.9027 46.3433 11.412 46.1193 10.996C45.906 10.5693 45.6073 10.2387 45.2233 10.004C44.85 9.75867 44.418 9.636 43.9273 9.636C43.426 9.636 42.9833 9.75867 42.5993 10.004C42.226 10.2387 41.9326 10.5693 41.7193 10.996C41.506 11.412 41.3993 11.9027 41.3993 12.468C41.3993 13.0333 41.506 13.5293 41.7193 13.956C41.9326 14.3827 42.226 14.7133 42.5993 14.948C42.9833 15.1827 43.426 15.3 43.9273 15.3ZM49.9396 16.5V8.436H51.3796L51.5236 9.956C51.7049 9.59333 51.9396 9.28933 52.2276 9.044C52.5156 8.788 52.8516 8.59067 53.2356 8.452C53.6302 8.31333 54.0782 8.244 54.5796 8.244V9.94H54.0036C53.6729 9.94 53.3582 9.98267 53.0596 10.068C52.7609 10.1427 52.4942 10.276 52.2596 10.468C52.0356 10.66 51.8596 10.9213 51.7316 11.252C51.6036 11.5827 51.5396 11.9933 51.5396 12.484V16.5H49.9396ZM59.4626 16.692C58.6946 16.692 58.0119 16.516 57.4146 16.164C56.8172 15.812 56.3479 15.3213 56.0066 14.692C55.6759 14.0627 55.5106 13.332 55.5106 12.5C55.5106 11.6467 55.6759 10.9053 56.0066 10.276C56.3479 9.636 56.8172 9.14 57.4146 8.788C58.0119 8.42533 58.7052 8.244 59.4946 8.244C60.2839 8.244 60.9612 8.42 61.5266 8.772C62.0919 9.124 62.5292 9.59333 62.8386 10.18C63.1479 10.756 63.3026 11.396 63.3026 12.1C63.3026 12.2067 63.2972 12.324 63.2866 12.452C63.2866 12.5693 63.2812 12.7027 63.2706 12.852H56.6786V11.716H61.7026C61.6706 11.044 61.4466 10.5213 61.0306 10.148C60.6146 9.764 60.0972 9.572 59.4786 9.572C59.0412 9.572 58.6412 9.67333 58.2786 9.876C57.9159 10.068 57.6226 10.356 57.3986 10.74C57.1852 11.1133 57.0786 11.588 57.0786 12.164V12.612C57.0786 13.2093 57.1852 13.716 57.3986 14.132C57.6226 14.5373 57.9159 14.8467 58.2786 15.06C58.6412 15.2627 59.0359 15.364 59.4626 15.364C59.9746 15.364 60.3959 15.252 60.7266 15.028C61.0572 14.804 61.3026 14.5 61.4626 14.116H63.0626C62.9239 14.6067 62.6892 15.0493 62.3586 15.444C62.0279 15.828 61.6172 16.132 61.1266 16.356C60.6466 16.58 60.0919 16.692 59.4626 16.692ZM68.2002 16.692C67.5175 16.692 66.9202 16.58 66.4082 16.356C65.8962 16.132 65.4909 15.8173 65.1922 15.412C64.8935 15.0067 64.7122 14.532 64.6482 13.988H66.2802C66.3335 14.244 66.4349 14.4787 66.5842 14.692C66.7442 14.9053 66.9575 15.076 67.2242 15.204C67.5015 15.332 67.8269 15.396 68.2002 15.396C68.5522 15.396 68.8402 15.348 69.0642 15.252C69.2989 15.1453 69.4695 15.0067 69.5762 14.836C69.6829 14.6547 69.7362 14.4627 69.7362 14.26C69.7362 13.9613 69.6615 13.7373 69.5122 13.588C69.3735 13.428 69.1602 13.3053 68.8722 13.22C68.5949 13.124 68.2589 13.0387 67.8642 12.964C67.4909 12.9 67.1282 12.8147 66.7762 12.708C66.4349 12.5907 66.1255 12.4467 65.8482 12.276C65.5815 12.1053 65.3682 11.892 65.2082 11.636C65.0482 11.3693 64.9682 11.044 64.9682 10.66C64.9682 10.2013 65.0909 9.79067 65.3362 9.428C65.5815 9.05467 65.9282 8.76667 66.3762 8.564C66.8349 8.35067 67.3735 8.244 67.9922 8.244C68.8882 8.244 69.6082 8.45733 70.1522 8.884C70.6962 9.31067 71.0162 9.91333 71.1122 10.692H69.5602C69.5175 10.3293 69.3575 10.052 69.0802 9.86C68.8029 9.65733 68.4349 9.556 67.9762 9.556C67.5175 9.556 67.1655 9.64667 66.9202 9.828C66.6749 10.0093 66.5522 10.2493 66.5522 10.548C66.5522 10.74 66.6215 10.9107 66.7602 11.06C66.8989 11.2093 67.1015 11.3373 67.3682 11.444C67.6455 11.54 67.9815 11.6307 68.3762 11.716C68.9415 11.8227 69.4482 11.956 69.8962 12.116C70.3442 12.276 70.7015 12.5107 70.9682 12.82C71.2349 13.1293 71.3682 13.572 71.3682 14.148C71.3789 14.6493 71.2509 15.092 70.9842 15.476C70.7282 15.86 70.3602 16.1587 69.8802 16.372C69.4109 16.5853 68.8509 16.692 68.2002 16.692ZM76.3721 16.692C75.6894 16.692 75.0921 16.58 74.5801 16.356C74.0681 16.132 73.6627 15.8173 73.3641 15.412C73.0654 15.0067 72.8841 14.532 72.8201 13.988H74.4521C74.5054 14.244 74.6067 14.4787 74.7561 14.692C74.9161 14.9053 75.1294 15.076 75.3961 15.204C75.6734 15.332 75.9987 15.396 76.3721 15.396C76.7241 15.396 77.0121 15.348 77.2361 15.252C77.4707 15.1453 77.6414 15.0067 77.7481 14.836C77.8547 14.6547 77.9081 14.4627 77.9081 14.26C77.9081 13.9613 77.8334 13.7373 77.6841 13.588C77.5454 13.428 77.3321 13.3053 77.0441 13.22C76.7667 13.124 76.4307 13.0387 76.0361 12.964C75.6627 12.9 75.3001 12.8147 74.9481 12.708C74.6067 12.5907 74.2974 12.4467 74.0201 12.276C73.7534 12.1053 73.5401 11.892 73.3801 11.636C73.2201 11.3693 73.1401 11.044 73.1401 10.66C73.1401 10.2013 73.2627 9.79067 73.5081 9.428C73.7534 9.05467 74.1001 8.76667 74.5481 8.564C75.0067 8.35067 75.5454 8.244 76.1641 8.244C77.0601 8.244 77.7801 8.45733 78.3241 8.884C78.8681 9.31067 79.1881 9.91333 79.2841 10.692H77.7321C77.6894 10.3293 77.5294 10.052 77.2521 9.86C76.9747 9.65733 76.6067 9.556 76.1481 9.556C75.6894 9.556 75.3374 9.64667 75.0921 9.828C74.8467 10.0093 74.7241 10.2493 74.7241 10.548C74.7241 10.74 74.7934 10.9107 74.9321 11.06C75.0707 11.2093 75.2734 11.3373 75.5401 11.444C75.8174 11.54 76.1534 11.6307 76.5481 11.716C77.1134 11.8227 77.6201 11.956 78.0681 12.116C78.5161 12.276 78.8734 12.5107 79.1401 12.82C79.4067 13.1293 79.5401 13.572 79.5401 14.148C79.5507 14.6493 79.4227 15.092 79.1561 15.476C78.9001 15.86 78.5321 16.1587 78.0521 16.372C77.5827 16.5853 77.0227 16.692 76.3721 16.692ZM82.0639 16.58C81.7546 16.58 81.4986 16.484 81.2959 16.292C81.1039 16.0893 81.0079 15.8493 81.0079 15.572C81.0079 15.284 81.1039 15.044 81.2959 14.852C81.4986 14.6493 81.7546 14.548 82.0639 14.548C82.3733 14.548 82.6239 14.6493 82.8159 14.852C83.0079 15.044 83.1039 15.284 83.1039 15.572C83.1039 15.8493 83.0079 16.0893 82.8159 16.292C82.6239 16.484 82.3733 16.58 82.0639 16.58Z" fill="white"/>
</svg>
