<svg width="132" height="33" viewBox="0 0 132 33" fill="none" xmlns="http://www.w3.org/2000/svg">
<path d="M14.1596 2.34987C10.4104 2.34677 6.81361 3.83456 4.16038 6.48596C1.50714 9.13736 0.0148231 12.7352 0.0117156 16.4879C0.00860816 20.2407 1.49497 23.841 4.14381 26.4968C6.79265 29.1525 10.387 30.6463 14.1361 30.6494L14.1478 16.4996L14.1596 2.34987Z" fill="#579BFF"/>
<path d="M15.7143 2.33838C17.3651 2.33838 18.9997 2.66369 20.5248 3.29541C22.0501 3.92718 23.4366 4.85265 24.6039 6.02002C25.7713 7.18738 26.6968 8.57389 27.3286 10.0991C27.9603 11.6243 28.2856 13.2588 28.2856 14.9097H15.7143V2.33838ZM19.643 8.62354C18.3412 8.62354 17.2857 9.67921 17.2856 10.981C17.2856 12.2828 18.3412 13.3384 19.643 13.3384C20.9447 13.3383 22.0004 12.2827 22.0004 10.981C22.0004 9.67926 20.9447 8.62362 19.643 8.62354Z" fill="#7000FF"/>
<path d="M39.0669 25.3017C37.8433 25.3017 36.7538 25.0251 35.7983 24.472C34.8429 23.9021 34.0886 23.1227 33.5355 22.1337C32.9991 21.1448 32.7309 19.9966 32.7309 18.6891C32.7309 17.365 32.9991 16.2084 33.5355 15.2194C34.0886 14.2137 34.8429 13.4343 35.7983 12.8811C36.7538 12.3112 37.8433 12.0263 39.0669 12.0263C40.609 12.0263 41.8997 12.4286 42.9389 13.2331C43.9781 14.0377 44.6402 15.1272 44.9252 16.5017H42.3103C42.1427 15.7642 41.7572 15.1943 41.1538 14.792C40.5671 14.3897 39.8631 14.1886 39.0418 14.1886C38.3713 14.1886 37.7511 14.3646 37.1812 14.7166C36.6113 15.0518 36.1503 15.5547 35.7983 16.2251C35.4631 16.8789 35.2955 17.6918 35.2955 18.664C35.2955 19.3848 35.396 20.0301 35.5972 20.6C35.7983 21.1531 36.0665 21.6225 36.4018 22.008C36.7538 22.3935 37.156 22.6869 37.6086 22.888C38.0612 23.0724 38.5389 23.1646 39.0418 23.1646C39.5949 23.1646 40.0894 23.0808 40.5252 22.9131C40.9778 22.7288 41.3549 22.4606 41.6566 22.1086C41.9751 21.7566 42.193 21.3375 42.3103 20.8514H44.9252C44.6402 22.1924 43.9781 23.2735 42.9389 24.0949C41.8997 24.8994 40.609 25.3017 39.0669 25.3017ZM49.3254 30.5314L52.418 23.592H51.6888L46.6854 12.328H49.4008L53.3734 21.5303L57.3711 12.328H60.0111L51.9654 30.5314H49.3254ZM62.2309 30.5314V12.328H64.4938L64.7452 14.2891C65.0134 13.9036 65.3486 13.5432 65.7509 13.208C66.1532 12.856 66.6309 12.571 67.1841 12.3531C67.754 12.1352 68.4161 12.0263 69.1704 12.0263C70.3772 12.0263 71.4332 12.3196 72.3384 12.9063C73.2603 13.493 73.9727 14.2891 74.4755 15.2949C74.9951 16.2838 75.2549 17.4152 75.2549 18.6891C75.2549 19.963 74.9951 21.1029 74.4755 22.1086C73.9559 23.0975 73.2351 23.877 72.3132 24.4469C71.4081 25.0168 70.3521 25.3017 69.1452 25.3017C68.1563 25.3017 67.2846 25.109 66.5304 24.7234C65.7761 24.3211 65.181 23.768 64.7452 23.064V30.5314H62.2309ZM68.7429 23.1143C69.514 23.1143 70.1928 22.9299 70.7795 22.5611C71.3829 22.1924 71.8523 21.6728 72.1875 21.0023C72.5395 20.3318 72.7155 19.5524 72.7155 18.664C72.7155 17.7756 72.5395 17.0046 72.1875 16.3509C71.8523 15.6804 71.3829 15.1608 70.7795 14.792C70.1928 14.4065 69.514 14.2137 68.7429 14.2137C67.9551 14.2137 67.2595 14.4065 66.6561 14.792C66.0694 15.1608 65.6085 15.6804 65.2732 16.3509C64.938 17.0046 64.7704 17.7756 64.7704 18.664C64.7704 19.5524 64.938 20.3318 65.2732 21.0023C65.6085 21.6728 66.0694 22.1924 66.6561 22.5611C67.2595 22.9299 67.9551 23.1143 68.7429 23.1143ZM78.1908 25V12.328H80.4536L80.6799 14.7166C80.9649 14.1467 81.3336 13.669 81.7862 13.2834C82.2388 12.8811 82.7668 12.571 83.3702 12.3531C83.9904 12.1352 84.6944 12.0263 85.4822 12.0263V14.6914H84.577C84.0574 14.6914 83.5629 14.7585 83.0936 14.8926C82.6243 15.0099 82.2052 15.2194 81.8365 15.5211C81.4845 15.8229 81.2079 16.2335 81.0068 16.7531C80.8056 17.2728 80.705 17.9181 80.705 18.6891V25H78.1908ZM93.1555 25.3017C91.9486 25.3017 90.8759 25.0251 89.9372 24.472C88.9985 23.9189 88.261 23.1478 87.7246 22.1589C87.205 21.1699 86.9452 20.0217 86.9452 18.7143C86.9452 17.3733 87.205 16.2084 87.7246 15.2194C88.261 14.2137 88.9985 13.4343 89.9372 12.8811C90.8759 12.3112 91.9654 12.0263 93.2058 12.0263C94.4461 12.0263 95.5105 12.3029 96.3989 12.856C97.2873 13.4091 97.9745 14.1467 98.4606 15.0686C98.9467 15.9737 99.1898 16.9794 99.1898 18.0857C99.1898 18.2533 99.1814 18.4377 99.1646 18.6389C99.1646 18.8232 99.1562 19.0328 99.1395 19.2674H88.7806V17.4823H96.6755C96.6252 16.4263 96.2732 15.605 95.6195 15.0183C94.9658 14.4149 94.1528 14.1131 93.1806 14.1131C92.4934 14.1131 91.8648 14.2724 91.2949 14.5909C90.725 14.8926 90.264 15.3451 89.912 15.9486C89.5768 16.5352 89.4092 17.2811 89.4092 18.1863V18.8903C89.4092 19.829 89.5768 20.6251 89.912 21.2789C90.264 21.9158 90.725 22.4019 91.2949 22.7371C91.8648 23.0556 92.485 23.2149 93.1555 23.2149C93.96 23.2149 94.6221 23.0389 95.1418 22.6869C95.6614 22.3349 96.0469 21.8571 96.2983 21.2537H98.8126C98.5947 22.0248 98.2259 22.7204 97.7063 23.3406C97.1867 23.944 96.5414 24.4217 95.7703 24.7737C95.016 25.1257 94.1444 25.3017 93.1555 25.3017ZM106.886 25.3017C105.813 25.3017 104.875 25.1257 104.07 24.7737C103.265 24.4217 102.629 23.9272 102.159 23.2903C101.69 22.6533 101.405 21.9074 101.304 21.0526H103.869C103.953 21.4549 104.112 21.8236 104.347 22.1589C104.598 22.4941 104.933 22.7623 105.352 22.9634C105.788 23.1646 106.299 23.2651 106.886 23.2651C107.439 23.2651 107.892 23.1897 108.244 23.0389C108.613 22.8712 108.881 22.6533 109.048 22.3851C109.216 22.1002 109.3 21.7985 109.3 21.48C109.3 21.0107 109.182 20.6587 108.948 20.424C108.73 20.1726 108.395 19.9798 107.942 19.8457C107.506 19.6949 106.978 19.5608 106.358 19.4434C105.771 19.3429 105.201 19.2088 104.648 19.0411C104.112 18.8568 103.626 18.6305 103.19 18.3623C102.771 18.0941 102.436 17.7589 102.184 17.3566C101.933 16.9375 101.807 16.4263 101.807 15.8229C101.807 15.1021 102 14.4568 102.385 13.8869C102.771 13.3002 103.316 12.8476 104.02 12.5291C104.741 12.1939 105.587 12.0263 106.559 12.0263C107.967 12.0263 109.099 12.3615 109.953 13.032C110.808 13.7025 111.311 14.6495 111.462 15.8731H109.023C108.956 15.3032 108.705 14.8674 108.269 14.5657C107.833 14.2472 107.255 14.088 106.534 14.088C105.813 14.088 105.26 14.2305 104.875 14.5154C104.489 14.8004 104.296 15.1775 104.296 15.6469C104.296 15.9486 104.405 16.2168 104.623 16.4514C104.841 16.6861 105.16 16.8872 105.579 17.0549C106.014 17.2057 106.542 17.3482 107.163 17.4823C108.051 17.6499 108.847 17.8594 109.551 18.1109C110.255 18.3623 110.817 18.731 111.236 19.2171C111.655 19.7032 111.864 20.3989 111.864 21.304C111.881 22.0918 111.68 22.7874 111.261 23.3909C110.859 23.9943 110.28 24.4636 109.526 24.7989C108.789 25.1341 107.909 25.3017 106.886 25.3017ZM119.728 25.3017C118.655 25.3017 117.716 25.1257 116.912 24.7737C116.107 24.4217 115.47 23.9272 115.001 23.2903C114.531 22.6533 114.246 21.9074 114.146 21.0526H116.71C116.794 21.4549 116.953 21.8236 117.188 22.1589C117.44 22.4941 117.775 22.7623 118.194 22.9634C118.63 23.1646 119.141 23.2651 119.728 23.2651C120.281 23.2651 120.733 23.1897 121.085 23.0389C121.454 22.8712 121.722 22.6533 121.89 22.3851C122.057 22.1002 122.141 21.7985 122.141 21.48C122.141 21.0107 122.024 20.6587 121.789 20.424C121.571 20.1726 121.236 19.9798 120.784 19.8457C120.348 19.6949 119.82 19.5608 119.2 19.4434C118.613 19.3429 118.043 19.2088 117.49 19.0411C116.953 18.8568 116.467 18.6305 116.032 18.3623C115.612 18.0941 115.277 17.7589 115.026 17.3566C114.774 16.9375 114.649 16.4263 114.649 15.8229C114.649 15.1021 114.841 14.4568 115.227 13.8869C115.612 13.3002 116.157 12.8476 116.861 12.5291C117.582 12.1939 118.428 12.0263 119.401 12.0263C120.809 12.0263 121.94 12.3615 122.795 13.032C123.65 13.7025 124.153 14.6495 124.304 15.8731H121.865C121.798 15.3032 121.546 14.8674 121.11 14.5657C120.675 14.2472 120.096 14.088 119.376 14.088C118.655 14.088 118.102 14.2305 117.716 14.5154C117.331 14.8004 117.138 15.1775 117.138 15.6469C117.138 15.9486 117.247 16.2168 117.465 16.4514C117.683 16.6861 118.001 16.8872 118.42 17.0549C118.856 17.2057 119.384 17.3482 120.004 17.4823C120.892 17.6499 121.689 17.8594 122.393 18.1109C123.097 18.3623 123.658 18.731 124.077 19.2171C124.496 19.7032 124.706 20.3989 124.706 21.304C124.723 22.0918 124.521 22.7874 124.102 23.3909C123.7 23.9943 123.122 24.4636 122.368 24.7989C121.63 25.1341 120.75 25.3017 119.728 25.3017ZM128.672 25.1257C128.186 25.1257 127.784 24.9749 127.465 24.6731C127.163 24.3547 127.012 23.9775 127.012 23.5417C127.012 23.0891 127.163 22.712 127.465 22.4103C127.784 22.0918 128.186 21.9326 128.672 21.9326C129.158 21.9326 129.552 22.0918 129.854 22.4103C130.155 22.712 130.306 23.0891 130.306 23.5417C130.306 23.9775 130.155 24.3547 129.854 24.6731C129.552 24.9749 129.158 25.1257 128.672 25.1257Z" fill="white"/>
</svg>
