<svg width="29" height="29" viewBox="0 0 29 29" fill="none" xmlns="http://www.w3.org/2000/svg">
<path d="M14.1596 0.350358C10.4104 0.347254 6.81361 1.83505 4.16038 4.48645C1.50714 7.13785 0.0148231 10.7357 0.0117156 14.4884C0.00860816 18.2412 1.49497 21.8414 4.14381 24.4972C6.79265 27.153 10.387 28.6468 14.1361 28.6499L14.1478 14.5001L14.1596 0.350358Z" fill="#579BFF"/>
<path d="M15.7143 0.338623C17.3651 0.338623 18.9997 0.663947 20.5248 1.29565C22.0501 1.92742 23.4366 2.85292 24.6039 4.02026C25.7713 5.18763 26.6968 6.57413 27.3286 8.09937C27.9603 9.62454 28.2856 11.2591 28.2856 12.9099H15.7143V0.338623ZM19.643 6.62476C18.3413 6.62476 17.2857 7.6795 17.2856 8.9812C17.2856 10.283 18.3412 11.3386 19.643 11.3386C20.9448 11.3385 22.0004 10.283 22.0004 8.9812C22.0003 7.67954 20.9447 6.62483 19.643 6.62476Z" fill="#7000FF"/>
</svg>
